<mxfile host="Electron" agent="Mozilla/5.0 (Windows NT 10.0; Win64; x64) AppleWebKit/537.36 (KHTML, like Gecko) draw.io/26.2.2 Chrome/134.0.6998.178 Electron/35.1.2 Safari/537.36" version="26.2.2" pages="3">
  <diagram name="main" id="c9db0220-8083-56f3-ca83-edcdcd058819">
    <mxGraphModel dx="786" dy="1192" grid="1" gridSize="10" guides="1" tooltips="1" connect="1" arrows="1" fold="1" page="1" pageScale="1.5" pageWidth="826" pageHeight="1169" background="#ffffff" math="0" shadow="0">
      <root>
        <mxCell id="0" style=";html=1;" />
        <mxCell id="1" style=";html=1;" parent="0" />
        <mxCell id="slSIb3ygdX_G-LAW5xA8-1" value="Email Writing" style="rounded=1;whiteSpace=wrap;html=1;" vertex="1" parent="1">
          <mxGeometry x="80" y="120" width="120" height="100" as="geometry" />
        </mxCell>
        <mxCell id="slSIb3ygdX_G-LAW5xA8-2" value="Market Reaserch" style="rounded=1;whiteSpace=wrap;html=1;" vertex="1" parent="1">
          <mxGeometry x="240" y="120" width="120" height="100" as="geometry" />
        </mxCell>
        <mxCell id="slSIb3ygdX_G-LAW5xA8-3" value="Education &amp;amp; Learning" style="rounded=1;whiteSpace=wrap;html=1;" vertex="1" parent="1">
          <mxGeometry x="400" y="240" width="120" height="100" as="geometry" />
        </mxCell>
        <mxCell id="slSIb3ygdX_G-LAW5xA8-4" value="Product Description" style="rounded=1;whiteSpace=wrap;html=1;" vertex="1" parent="1">
          <mxGeometry x="80" y="240" width="120" height="100" as="geometry" />
        </mxCell>
        <mxCell id="slSIb3ygdX_G-LAW5xA8-5" value="Content Creation" style="rounded=1;whiteSpace=wrap;html=1;" vertex="1" parent="1">
          <mxGeometry x="400" y="120" width="120" height="100" as="geometry" />
        </mxCell>
        <mxCell id="slSIb3ygdX_G-LAW5xA8-6" value="Idea Generation" style="rounded=1;whiteSpace=wrap;html=1;" vertex="1" parent="1">
          <mxGeometry x="240" y="240" width="120" height="100" as="geometry" />
        </mxCell>
        <mxCell id="slSIb3ygdX_G-LAW5xA8-7" value="&lt;h1 style=&quot;margin-top: 0px;&quot;&gt;Title&lt;/h1&gt;&lt;p&gt;Short description&lt;/p&gt;" style="text;html=1;whiteSpace=wrap;overflow=hidden;rounded=0;" vertex="1" parent="1">
          <mxGeometry x="205" y="20" width="190" height="80" as="geometry" />
        </mxCell>
      </root>
    </mxGraphModel>
  </diagram>
  <diagram id="zN244MtlE_gTUq1zhHst" name="e-mail">
    <mxGraphModel dx="786" dy="1192" grid="1" gridSize="10" guides="1" tooltips="1" connect="1" arrows="1" fold="1" page="1" pageScale="1" pageWidth="850" pageHeight="1100" math="0" shadow="0">
      <root>
        <mxCell id="0" />
        <mxCell id="1" parent="0" />
        <mxCell id="zADgeynGD-84GF2jDfNU-1" value="Topic*" style="text;html=1;align=center;verticalAlign=middle;whiteSpace=wrap;rounded=0;" vertex="1" parent="1">
          <mxGeometry x="40" y="40" width="60" height="30" as="geometry" />
        </mxCell>
        <mxCell id="zADgeynGD-84GF2jDfNU-2" value="" style="rounded=0;whiteSpace=wrap;html=1;" vertex="1" parent="1">
          <mxGeometry x="40" y="70" width="360" height="30" as="geometry" />
        </mxCell>
        <mxCell id="zADgeynGD-84GF2jDfNU-3" value="Industry" style="text;html=1;align=center;verticalAlign=middle;whiteSpace=wrap;rounded=0;" vertex="1" parent="1">
          <mxGeometry x="40" y="110" width="60" height="30" as="geometry" />
        </mxCell>
        <mxCell id="zADgeynGD-84GF2jDfNU-4" value="" style="rounded=0;whiteSpace=wrap;html=1;" vertex="1" parent="1">
          <mxGeometry x="40" y="140" width="360" height="30" as="geometry" />
        </mxCell>
        <mxCell id="zADgeynGD-84GF2jDfNU-5" value="Generate" style="rounded=0;whiteSpace=wrap;html=1;" vertex="1" parent="1">
          <mxGeometry x="150" y="200" width="120" height="40" as="geometry" />
        </mxCell>
        <mxCell id="zADgeynGD-84GF2jDfNU-7" value="&lt;h1 style=&quot;margin-top: 0px;&quot;&gt;Heading&lt;/h1&gt;&lt;p&gt;Generated Content&lt;/p&gt;" style="text;html=1;whiteSpace=wrap;overflow=hidden;rounded=0;" vertex="1" parent="1">
          <mxGeometry x="40" y="260" width="360" height="90" as="geometry" />
        </mxCell>
      </root>
    </mxGraphModel>
  </diagram>
  <diagram id="JfeDt2o3LP9ZWm9nkvmO" name="education&amp;learning">
    <mxGraphModel dx="786" dy="1192" grid="1" gridSize="10" guides="1" tooltips="1" connect="1" arrows="1" fold="1" page="1" pageScale="1" pageWidth="850" pageHeight="1100" math="0" shadow="0">
      <root>
        <mxCell id="0" />
        <mxCell id="1" parent="0" />
        <mxCell id="A_e0fB9WLLBVi7-x6p6h-1" value="Concept*" style="text;html=1;align=center;verticalAlign=middle;whiteSpace=wrap;rounded=0;" vertex="1" parent="1">
          <mxGeometry x="40" y="40" width="60" height="30" as="geometry" />
        </mxCell>
        <mxCell id="A_e0fB9WLLBVi7-x6p6h-2" value="" style="rounded=0;whiteSpace=wrap;html=1;" vertex="1" parent="1">
          <mxGeometry x="40" y="70" width="360" height="30" as="geometry" />
        </mxCell>
        <mxCell id="A_e0fB9WLLBVi7-x6p6h-3" value="Audience Type" style="text;html=1;align=center;verticalAlign=middle;whiteSpace=wrap;rounded=0;" vertex="1" parent="1">
          <mxGeometry x="40" y="110" width="110" height="30" as="geometry" />
        </mxCell>
        <mxCell id="A_e0fB9WLLBVi7-x6p6h-4" value="" style="rounded=0;whiteSpace=wrap;html=1;" vertex="1" parent="1">
          <mxGeometry x="40" y="140" width="360" height="30" as="geometry" />
        </mxCell>
        <mxCell id="A_e0fB9WLLBVi7-x6p6h-5" value="Generate" style="rounded=0;whiteSpace=wrap;html=1;" vertex="1" parent="1">
          <mxGeometry x="150" y="200" width="120" height="40" as="geometry" />
        </mxCell>
        <mxCell id="A_e0fB9WLLBVi7-x6p6h-6" value="&lt;h1 style=&quot;margin-top: 0px;&quot;&gt;Heading&lt;/h1&gt;&lt;p&gt;Generated Content&lt;/p&gt;" style="text;html=1;whiteSpace=wrap;overflow=hidden;rounded=0;" vertex="1" parent="1">
          <mxGeometry x="40" y="260" width="360" height="90" as="geometry" />
        </mxCell>
      </root>
    </mxGraphModel>
  </diagram>
</mxfile>
